<?xml version="1.0" encoding="UTF-8" standalone="no"?>
<!DOCTYPE svg PUBLIC "-//W3C//DTD SVG 1.1//EN" "http://www.w3.org/Graphics/SVG/1.1/DTD/svg11.dtd">
<svg width="100%" height="100%" viewBox="0 0 257 309" version="1.1" xmlns="http://www.w3.org/2000/svg" xmlns:xlink="http://www.w3.org/1999/xlink" xml:space="preserve" xmlns:serif="http://www.serif.com/" style="fill-rule:evenodd;clip-rule:evenodd;stroke-linecap:round;stroke-linejoin:round;stroke-miterlimit:1.5;">
    <g id="Artboard1" transform="matrix(0.854421,0,0,1.02843,0,0)">
        <rect x="0" y="0" width="300" height="300" style="fill:none;"/>
        <g id="bear" transform="matrix(1.17038,0,0,0.972353,-533.068,-334.756)">
            <path id="head" d="M534.552,384C539,375.946 535.232,361.536 542.19,357.477C549.147,353.418 570.356,356.671 576.295,359.646C580.99,361.997 573.221,372.796 577.823,375.325C585.208,379.384 612.605,382.554 620.607,384C622.322,384.31 625.056,385.559 625.835,384C628.13,379.411 627.571,360.738 634.375,356.464C641.179,352.19 660.65,353.765 666.658,358.354C672.666,362.944 669.879,376.577 670.422,384C670.881,390.282 669.461,396.608 669.915,402.89C670.409,409.712 678.891,419.931 673.384,424.928C664.83,432.69 636.266,445.99 618.595,449.46C601.791,452.759 581.28,448.257 567.354,445.747C556.118,443.721 544.263,439.997 535.038,434.397C525.912,428.857 512.081,420.547 512,412.148C511.919,403.748 529.521,393.112 534.552,384Z" style="fill:rgb(255,205,226);stroke:rgb(255,146,0);stroke-width:7.5px;"/>
            <g id="body" transform="matrix(1,0,0,1,424.366,350.016)">
                <path d="M122.226,103.203C122.226,103.203 79.06,133.357 77.562,150C76.064,166.643 113.236,203.063 113.236,203.063L188.182,212.989C188.182,212.989 222.148,185.26 224.557,167.487C226.966,149.714 219.691,117.064 202.636,106.35C185.581,95.636 122.226,103.203 122.226,103.203Z" style="fill:rgb(255,195,0);stroke:rgb(255,146,0);stroke-width:9.5px;"/>
            </g>
            <g id="arms">
                <g transform="matrix(0.957711,0.287732,-0.287732,0.957711,149.26,-134.112)">
                    <path d="M536.823,450.625C529.211,466.159 501.891,515.657 494.983,530.443C493.726,533.133 492.563,538.389 495.375,539.342C501.481,541.411 524.57,552.737 531.62,542.857C542.171,528.07 557.173,468.227 558.679,450.625C559.317,443.168 544.296,437.241 540.654,437.241C537.011,437.241 538.864,446.458 536.823,450.625Z" style="fill:rgb(157,90,0);stroke:rgb(255,146,0);stroke-width:9.5px;"/>
                </g>
                <g transform="matrix(0.96782,-0.251642,0.251642,0.96782,367.498,394.421)">
                    <path d="M225.28,128.458C228.849,150.422 235.986,194.349 238.575,210.386C239.344,215.147 236.023,224.11 240.811,224.68C248.209,225.559 278.951,229.461 282.959,215.664C287.618,199.627 271.766,145.056 268.765,128.458C267.996,124.207 265.966,118.785 264.951,116.074L225.28,128.458Z" style="fill:rgb(157,90,0);stroke:rgb(255,146,0);stroke-width:9px;"/>
                </g>
            </g>
            <g id="legs" transform="matrix(1,0,0,1,39.9647,-10.8454)">
                <g transform="matrix(1,0,0,1,390.407,363.817)">
                    <path d="M130.292,203.059L100.526,198.332L80.914,265.322L111.12,280.457L130.292,203.059Z" style="fill:rgb(157,90,0);stroke:rgb(255,146,0);stroke-width:9px;"/>
                </g>
                <g transform="matrix(1,0,0,1,369.354,371.278)">
                    <path d="M203.03,209.081L166.31,202.572L176.514,279.97L208.536,279.97L203.03,209.081Z" style="fill:rgb(157,90,0);stroke:rgb(255,146,0);stroke-width:9px;"/>
                </g>
            </g>
            <g id="eyes">
                <g transform="matrix(1,0,0,1,0.232497,6.058)">
                    <path d="M570.033,384C566.316,385.932 556.87,392.546 558.699,395.595C560.528,398.644 577.288,404.225 581.006,402.293C584.724,400.36 582.835,387.049 581.006,384C579.177,380.951 573.279,382.313 570.033,384Z" style="fill:rgb(90,207,239);stroke:rgb(80,87,213);stroke-width:6.5px;"/>
                </g>
                <g transform="matrix(1,0,0,1,-1.80222,7.31463)">
                    <path d="M608.202,392.44C605.799,394.148 605.799,401.048 608.202,402.69C610.605,404.333 620.217,404.001 622.62,402.293C625.023,400.584 625.023,394.082 622.62,392.44C620.217,390.797 610.605,390.731 608.202,392.44Z" style="fill:rgb(90,207,239);stroke:rgb(80,87,213);stroke-width:6.5px;"/>
                </g>
            </g>
            <g id="mouth" transform="matrix(1,0,0,1,-1.80222,7.11278)">
                <path d="M558.466,413.857C566.519,416.929 582.625,423.072 593.618,424.591C603.803,425.998 617.549,423.977 624.422,422.966" style="fill:none;stroke:rgb(248,41,29);stroke-width:7.5px;"/>
            </g>
        </g>
    </g>
</svg>
