<?xml version="1.0" encoding="UTF-8" standalone="no"?>
<!DOCTYPE svg PUBLIC "-//W3C//DTD SVG 1.1//EN" "http://www.w3.org/Graphics/SVG/1.1/DTD/svg11.dtd">
<svg width="100%" height="100%" viewBox="0 0 700 700" version="1.1" xmlns="http://www.w3.org/2000/svg" xmlns:xlink="http://www.w3.org/1999/xlink" xml:space="preserve" xmlns:serif="http://www.serif.com/" style="fill-rule:evenodd;clip-rule:evenodd;stroke-linejoin:round;stroke-miterlimit:2;">
    <path d="M401.431,16.711L504.294,50.133L452.862,208.422L587.511,110.594L651.084,198.094L516.435,295.922L682.87,295.922L682.87,404.078L516.435,404.078L651.084,501.906L587.511,589.406L452.862,491.578L504.294,649.867L401.431,683.289L350,525L298.569,683.289L195.706,649.867L247.138,491.578L112.489,589.406L48.916,501.906L183.565,404.078L17.13,404.078L17.13,295.922L183.565,295.922L48.916,198.094L112.489,110.594L247.138,208.422L195.706,50.133L298.569,16.711L350,175L401.431,16.711Z" style="fill:rgb(98,228,209);fill-opacity:0.67;"/>
</svg>
