<?xml version="1.0" encoding="utf-8"?>
<!-- Generator: Adobe Illustrator 24.1.3, SVG Export Plug-In . SVG Version: 6.00 Build 0)  -->
<svg version="1.1" id="Layer_1" xmlns="http://www.w3.org/2000/svg" xmlns:xlink="http://www.w3.org/1999/xlink" x="0px" y="0px"
	 viewBox="0 0 109.4 98.3" style="enable-background:new 0 0 109.4 98.3;" xml:space="preserve">
<style type="text/css">
	.st0{fill:#E7BF28;}
	.st1{fill:#FFFFFF;stroke:#231F20;stroke-width:1.606;stroke-linecap:round;stroke-linejoin:round;stroke-miterlimit:10;}
	.st2{fill:none;stroke:#231F20;stroke-width:1.606;stroke-linecap:round;stroke-linejoin:round;stroke-miterlimit:10;}
	.st3{fill:#FFFFFF;stroke:#231F20;stroke-width:2.5;stroke-linecap:round;stroke-linejoin:round;stroke-miterlimit:10;}
</style>
<path class="st0" d="M16.4,91c-8.2-9-13.2-20-13.2-33.2c0-28.1,22.7-50.7,50.7-50.7s50.7,22.7,50.7,50.7c0,13-4.8,23.8-12.9,32.8"/>
<g>
	<path class="st1" d="M84.8,2.7c0.5-0.5,1.1-0.8,1.7-0.9c0.7-0.1,1.3,0.1,1.9,0.6l5,4.3c1.1,0.9,1.2,2.5,0.3,3.6
		c-0.5,0.5-1.1,0.9-1.7,0.9c-0.7,0.1-1.3-0.1-1.9-0.6L89.4,10l-8.7,10.2L76.9,17l8.8-10.2l-0.7-0.5C84,5.3,83.9,3.7,84.8,2.7z"/>
	<g>
		<path class="st1" d="M85.6,16.2c0,0-4.6,12-4.8,13.6c-0.9,6.9-5.8,14.2-12.6,15.5c-6.9,1.3-13.3-1.8-14.6-8.7
			c-1.3-6.9,2.4-15.3,11.9-18.1c2.8-0.9,14.4-6.6,14.4-6.6L85.6,16.2z"/>
	</g>
</g>
<g>
	<path class="st1" d="M43.7,43.5c-1.1,0.9-2.1,1.4-3.8,1.8c-0.1,0-0.2,0.1-0.3,0.1c-0.2,0.1-0.4,0.1-0.7,0.1c-0.1,0-0.3,0.1-0.4,0.1
		c-2.6,0.3-5.2-0.4-7.3-1.8C31,43.7,31,43.7,31,43.6c-2.5-1.7-4.2-4.3-4.7-7.5l-1.3-8.5l1.7-0.1c0,0,2.5,5.9,5.2,7.6
		c0.4,0.3,0.8,0.4,1.1,0.4c0.1,0,0.1,0,0.2,0c1,0.1,2.6-0.1,3.6-1.1l4,5.2l0.1,0.2L43.7,43.5z"/>
	<line class="st2" x1="33.4" y1="36" x2="31.1" y2="43.7"/>
	<line class="st2" x1="30.2" y1="34" x2="26.2" y2="35"/>
	<path class="st1" d="M20.6,20.9l0.4,2.8c0.4,2.5,2.6,4.2,5,3.8l-0.4-2.8c0-0.1,0-0.2-0.1-0.3C25.1,22.1,22.9,20.6,20.6,20.9z"/>
	<path class="st1" d="M26.1,27.4c1.2-0.2,2.3-0.8,3-1.8c0.7-0.9,1-2.1,0.8-3.3l-0.4-2.8l0,0c-1.2,0.2-2.3,0.8-3,1.8
		c-0.6,0.8-0.9,1.9-0.9,3c0,0.1,0,0.2,0,0.3L26.1,27.4"/>
	<path class="st1" d="M47.8,30.1c0.1,0.2,0.1,0.4,0.2,0.6c1.2,4-0.1,8.1-1.9,10.4c-0.7,0.9-1.9,2.1-2.5,2.4L40.9,40l-0.1-0.2l-4-5.2
		c0.4-0.4,0.7-0.9,0.8-1.7c0.1-0.3,0-0.7,0-1.1c0-0.1-0.1-0.3-0.1-0.4c0.2-2.4,2-4.4,4.5-4.8c1.8-0.3,3.5,0.4,4.7,1.8
		c0.4,0.4,0.8,1,1,1.6C47.8,30.1,47.8,30.1,47.8,30.1z"/>
	<line class="st2" x1="48.1" y1="34.2" x2="38.3" y2="33.7"/>
</g>
<path class="st3" d="M35.2,86.4"/>
<path class="st3" d="M33.2,73.5"/>
<polyline class="st1" points="73,57.8 101.9,57.8 101.9,92 6.1,91.7 6.1,72.9 34.4,72.9 "/>
<path class="st3" d="M33.2,73.5"/>
<polyline class="st1" points="72.6,91.1 72.6,46.6 35.2,46.6 35.2,90.9 "/>
<g>
	<polyline class="st1" points="62.1,74.5 65.5,83 61.2,82.2 58.8,85.4 55.5,76.3 	"/>
	<polyline class="st1" points="47.3,74.5 44,83 48.3,82.2 50.7,85.4 54,76.3 	"/>
	<g>
		<path class="st1" d="M56,53.2l0.3,0.2c0.6,0.5,1.4,0.8,2.3,0.8h0.4c1.6-0.1,3,0.9,3.5,2.5l0.1,0.3c0.2,0.8,0.7,1.5,1.4,2l0.3,0.2
			c1.3,0.9,1.9,2.6,1.3,4l-0.1,0.3c-0.3,0.8-0.3,1.6,0,2.4l0.1,0.3c0.6,1.5,0,3.1-1.3,4l-0.3,0.2c-0.7,0.4-1.2,1.1-1.4,2l-0.1,0.3
			c-0.4,1.5-1.8,2.6-3.5,2.5h-0.4c-0.8-0.1-1.6,0.3-2.3,0.8L56,76.1c-1.3,1-3,1-4.3,0l-0.3-0.2c-0.6-0.5-1.4-0.8-2.3-0.8h-0.4
			c-1.6,0.1-3-0.9-3.5-2.5l-0.1-0.3c-0.2-0.8-0.7-1.5-1.4-2l-0.3-0.2c-1.3-0.9-1.9-2.6-1.3-4l0.1-0.3c0.3-0.8,0.3-1.6,0-2.4
			l-0.1-0.3c-0.6-1.5,0-3.1,1.3-4l0.3-0.2c0.7-0.4,1.2-1.1,1.4-2l0.1-0.3c0.4-1.5,1.8-2.6,3.5-2.5h0.4c0.8,0.1,1.6-0.3,2.3-0.8
			l0.3-0.2C53,52.2,54.8,52.2,56,53.2z"/>
		<circle class="st1" cx="53.9" cy="64.6" r="9"/>
		<polygon class="st1" points="53.9,58.8 55.6,62.3 59.5,62.9 56.7,65.6 57.3,69.5 53.9,67.7 50.4,69.5 51.1,65.6 48.2,62.9 
			52.1,62.3 		"/>
	</g>
</g>
</svg>
