<?xml version="1.0" encoding="utf-8"?>
<!-- Generator: Adobe Illustrator 24.1.3, SVG Export Plug-In . SVG Version: 6.00 Build 0)  -->
<svg version="1.1" id="Layer_1" xmlns="http://www.w3.org/2000/svg" xmlns:xlink="http://www.w3.org/1999/xlink" x="0px" y="0px"
	 viewBox="0 0 110.7 92" style="enable-background:new 0 0 110.7 92;" xml:space="preserve">
<style type="text/css">
	.st0{fill:#E7BF28;}
	.st1{fill:none;stroke:#231F20;stroke-width:1.6063;stroke-linecap:round;stroke-linejoin:round;stroke-miterlimit:10;}
	.st2{fill:#FFFFFF;stroke:#231F20;stroke-width:1.6063;stroke-linecap:round;stroke-linejoin:round;stroke-miterlimit:10;}
	.st3{fill:#FFFFFF;stroke:#231F20;stroke-width:1.6063;stroke-miterlimit:10;}
	.st4{fill:none;stroke:#231F20;stroke-width:1.6063;stroke-linecap:round;stroke-miterlimit:10;}
</style>
<path class="st0" d="M94.7,87.2c7.4-8.9,11.9-20.4,11.9-33c0-28.6-23.1-51.7-51.7-51.7S3.2,25.7,3.2,54.2c0,12.5,4.5,24,11.9,33
	H94.7z"/>
<path class="st1" d="M11.4,86.8h86.3"/>
<path class="st2" d="M85.4,44.8c8-16.5,11.9-31.1,8.7-32.7c-3.2-1.5-12.3,10.6-20.3,27.1s-11.9,31.1-8.7,32.7
	C68.3,73.4,77.4,61.3,85.4,44.8z"/>
<path class="st3" d="M71.1,25.8C71,25.8,71,25.8,71.1,25.8c-0.4-0.6-3.3-5-2.1-8.6c1.3-3.6,6.4-5.1,7-5.2c0.1,0,0.1,0,0.1,0.1
	c0.3,0.5,3.3,4.9,2,8.5C76.8,24.2,71.7,25.6,71.1,25.8z"/>
<path class="st4" d="M76,12.1l-5.1,13.8c0,0-0.9,2.7-1.1,3.6"/>
<path class="st1" d="M87.6,24.2L81.2,26"/>
<path class="st1" d="M84.5,32.4l-7.8,1.8"/>
<path class="st1" d="M81.3,40l-8.2,1.8"/>
<path class="st2" d="M64.9,32.8l3.2,32.3c0.3,2.3-1.5,4.4-3.8,4.6l-9.5,1c-2.3,0.3-4.4-1.5-4.6-3.8L47,34.6
	c-0.2-1.8,0.8-3.5,2.4-4.2c0.8-0.4,1.2-1.2,1.1-2.1l-0.3-3.1l9.9-1l0.3,3.1c0.1,0.8,0.6,1.6,1.5,1.8C63.4,29.6,64.7,31,64.9,32.8z"
	/>
<path class="st2" d="M60.2,21.5l-11.1,1.1l0.4,4.3l11.1-1.1L60.2,21.5z"/>
<path class="st2" d="M43.8,41.7l-23.3-0.9L20,52.4l23.3,0.9L43.8,41.7z"/>
<path class="st2" d="M25.3,34.6l18.5,7.1l-23.3-1c0,0,0.7-2.1,2-3.7C23.9,35.3,25.3,34.6,25.3,34.6z"/>
<path class="st2" d="M93.1,50.7H15.9V58h77.2V50.7z"/>
<path class="st2" d="M85.5,89.3H24.1L19.6,58h70.5L85.5,89.3z"/>
<path class="st1" d="M31.4,62.7v21.1"/>
<path class="st1" d="M39.2,62.7v21.1"/>
<path class="st1" d="M47,62.7v21.1"/>
<path class="st1" d="M54.8,62.7v21.1"/>
<path class="st1" d="M62.6,62.7v21.1"/>
<path class="st1" d="M70.4,62.7v21.1"/>
<path class="st1" d="M78.2,62.7v21.1"/>
<path class="st2" d="M87.4,74.3L54.3,56.8c-1.2-0.6-1.6-2.1-1-3.2l0.3-0.4c0.6-1.2,2.1-1.6,3.2-1l33.1,17.5c1.2,0.6,1.6,2.1,1,3.2
	l-0.3,0.4C90,74.5,88.6,74.9,87.4,74.3z"/>
</svg>
