<?xml version="1.0" encoding="utf-8"?>
<!-- Generator: Adobe Illustrator 24.1.3, SVG Export Plug-In . SVG Version: 6.00 Build 0)  -->
<svg version="1.1" id="Layer_1" xmlns="http://www.w3.org/2000/svg" xmlns:xlink="http://www.w3.org/1999/xlink" x="0px" y="0px"
	 viewBox="0 0 103 89" style="enable-background:new 0 0 103 89;" xml:space="preserve">
<style type="text/css">
	.st0{fill:#E7BF28;}
	.st1{fill:none;stroke:#231F20;stroke-width:1.6063;stroke-linecap:round;stroke-miterlimit:10;}
	.st2{fill:#FFFFFF;stroke:#231F20;stroke-width:1.6063;stroke-miterlimit:10;}
	.st3{fill:none;stroke:#231F20;stroke-width:1.6063;stroke-miterlimit:10;}
</style>
<path class="st0" d="M88.3,82.6c6.9-8.4,11.1-19.1,11.1-30.8c0-26.7-21.6-48.3-48.3-48.3C24.4,3.5,2.8,25.1,2.8,51.8
	c0,11.7,4.2,22.4,11.1,30.8H88.3z"/>
<path class="st1" d="M5.8,82h90.8"/>
<path class="st2" d="M30.8,42.5c0.1,0.1,0.2,0.2,0.1,0.3c-1.3,3.4-5,5-8.5,3.8c-3.4-1.2-5.2-4.9-4.1-8.3c0.1-0.1,0.2-0.2,0.3-0.1
	L30.8,42.5z"/>
<path class="st3" d="M24.8,39.8l-2.4,6.8"/>
<path class="st3" d="M24.4,40.4l-5.9,2.9"/>
<path class="st3" d="M24.8,40.5l2.8,6"/>
<path class="st2" d="M59.6,24.2l-2.8-1l-0.9,2.2c-0.1,0.1-0.1,0.1-0.2,0.1l-2.5-1c-0.1-0.1-0.1-0.1-0.1-0.2l0.9-2.1l-3-1.1
	C51,20.9,51,20.8,51,20.7c1-2.3,3.7-3.4,6.1-2.5c2.4,0.9,3.7,3.5,2.8,6C59.8,24.2,59.7,24.2,59.6,24.2z"/>
<path class="st2" d="M83.8,53.1c0.9,1,1.4,2.4,1.4,3.9c0,3.3-2.7,5.9-5.9,5.9c-0.4,0-0.7,0-1-0.1c0.1,0.2,0.1,0.5,0.1,0.8
	c0,3.3-2.7,5.9-5.9,5.9c-1.2,0-12.5-0.1-12.5-0.1S60,59.5,60,58c0-3.3,2.7-5.9,5.9-5.9c0.4,0,0.7,0.1,1.1,0.1
	c-0.1-0.4-0.1-0.7-0.1-1.1c0-3.3,2.7-5.9,5.9-5.9c1.2,0,2.3,0.4,3.3,1c0.6-2.6,3-4.7,5.8-4.7c3.3,0,5.9,2.7,5.9,5.9
	C88.1,50.1,86.3,52.3,83.8,53.1z"/>
<path class="st1" d="M81.8,47.2L56.8,73"/>
<path class="st1" d="M72.3,49.8l0.8,6.4l7.3,1.3"/>
<path class="st1" d="M65.1,57l0.8,6.3l7.3,1.3"/>
<path class="st2" d="M41.5,25.6c1.2-0.7,2.6-1,4.1-0.8c3.2,0.5,5.5,3.6,4.9,6.9c-0.1,0.4-0.1,0.7-0.2,1c0.2,0,0.5,0.1,0.8,0.1
	c3.2,0.5,5.5,3.6,4.9,6.9c-0.2,1.2-2.2,12.2-2.2,12.2s-9.9-1.8-11.4-2c-3.2-0.5-5.5-3.6-4.9-6.8c0.1-0.4,0.2-0.7,0.2-1
	c-0.4,0-0.7,0-1.1-0.1c-3.2-0.5-5.5-3.6-4.9-6.8c0.2-1.2,0.8-2.3,1.6-3.1c-2.5-1-4.1-3.7-3.7-6.5c0.5-3.2,3.6-5.5,6.9-4.9
	C39.2,20.8,41.2,23,41.5,25.6z"/>
<path class="st1" d="M35.3,26.5l21.4,28.9"/>
<path class="st1" d="M36.4,36.3l6.4,0.2l2.5-7"/>
<path class="st1" d="M42.2,44.6l6.4,0.2l2.5-7"/>
<path class="st2" d="M22.1,62.7c-0.4,1.3-0.4,2.8,0.3,4.1c1.4,3,4.9,4.3,7.9,3c0.3-0.1,0.6-0.3,0.9-0.5c0.1,0.2,0.2,0.5,0.3,0.8
	c1.4,3,4.9,4.3,7.9,3c1.1-0.5,11.3-5.2,11.3-5.2s-4.3-9.1-4.9-10.5c-1.4-3-4.9-4.3-7.9-3c-0.4,0.1-0.7,0.3-1,0.5
	c-0.1-0.4-0.2-0.7-0.4-1c-1.4-3-4.9-4.3-7.9-3c-1.1,0.5-2,1.3-2.6,2.3c-1.6-2.2-4.6-3-7.2-1.9c-3,1.4-4.3,4.9-3,7.9
	C17,61.8,19.5,63.1,22.1,62.7z"/>
<path class="st1" d="M21.1,56.8L54.4,70"/>
<path class="st1" d="M30.7,55.2l1.9,6.1l-6.1,4.1"/>
<path class="st1" d="M40.2,58.8l1.9,6.1l-6.1,4.1"/>
<path class="st2" d="M16.4,62.5c-0.1,0-0.2,0.1-0.2,0.2c0.2,10.4,15.8,22.5,34.9,22.5S85.8,73.7,86,62.7c0-0.1-0.1-0.2-0.2-0.2H16.4
	z"/>
<path class="st1" d="M61.9,38.8l0.4,3.8l3.2-0.9"/>
<path class="st2" d="M61.2,47.5c1.5,0,2.7-1.2,2.7-2.7c0-1.5-1.2-2.7-2.7-2.7c-1.5,0-2.7,1.2-2.7,2.7C58.5,46.3,59.7,47.5,61.2,47.5
	z"/>
<path class="st2" d="M70.7,37.4c4.5,0,8.2-3.7,8.2-8.2S75.2,21,70.7,21c-4.5,0-8.2,3.7-8.2,8.2S66.2,37.4,70.7,37.4z"/>
<path class="st2" d="M70.7,34.3c2.8,0,5-2.3,5-5s-2.3-5-5-5c-2.8,0-5,2.3-5,5S67.9,34.3,70.7,34.3z"/>
<path class="st2" d="M70.7,31.2c1.1,0,2-0.9,2-2c0-1.1-0.9-2-2-2c-1.1,0-2,0.9-2,2C68.7,30.3,69.6,31.2,70.7,31.2z"/>
</svg>
