<?xml version="1.0" encoding="utf-8"?>
<!-- Generator: Adobe Illustrator 24.1.3, SVG Export Plug-In . SVG Version: 6.00 Build 0)  -->
<svg version="1.1" id="Layer_1" xmlns="http://www.w3.org/2000/svg" xmlns:xlink="http://www.w3.org/1999/xlink" x="0px" y="0px"
	 viewBox="0 0 104.6 92.7" style="enable-background:new 0 0 104.6 92.7;" xml:space="preserve">
<style type="text/css">
	.st0{fill:#E7BF28;}
	.st1{fill:none;stroke:#231F20;stroke-width:1.6063;stroke-linecap:round;stroke-miterlimit:10;}
	.st2{fill:#FFFFFF;}
	.st3{fill:#FFFFFF;stroke:#231F20;stroke-width:1.6063;stroke-miterlimit:10;}
	.st4{fill:none;stroke:#231F20;stroke-width:1.6063;stroke-miterlimit:10;}
	.st5{stroke:#231F20;stroke-width:0.2167;stroke-miterlimit:10;}
</style>
<path class="st0" d="M12.9,87.6C5.6,78.8,1.3,67.5,1.3,55.1c0-28.4,23-51.4,51.4-51.4s51.4,23,51.4,51.4c0,12.2-4.2,23.5-11.4,32.3"
	/>
<path class="st1" d="M7.3,87.6H98"/>
<path class="st2" d="M46.9,81l-0.3,4.5l-2.1,4.1L61.7,90c0,0-2.5-2.8-3-4.1c-0.4-1-0.9-4.3-0.9-4.3L46.9,81z"/>
<path class="st3" d="M87.3,80.8H18c-2.8,0-5.1-2.3-5.1-5.1V27.5c0-2.8,2.3-5.1,5.1-5.1h69.3c2.8,0,5.1,2.3,5.1,5.1v48.1
	C92.4,78.5,90.1,80.8,87.3,80.8z"/>
<path class="st4" d="M41,90.4c3.3-0.1,6-3.9,6-8.5c0-0.1,0-0.3,0-0.4"/>
<path class="st4" d="M58.1,81.4c0,0.1,0,0.3,0,0.4c0,4.7,2.8,8.5,6.1,8.5h0.1"/>
<path class="st1" d="M35.4,90.4h33.2"/>
<path class="st4" d="M47.5,56.1H21.1c-0.7,0-1.3-0.6-1.3-1.3V37c0-0.7,0.6-1.3,1.3-1.3h26.4c0.7,0,1.3,0.6,1.3,1.3v17.8
	C48.8,55.5,48.2,56.1,47.5,56.1z"/>
<path class="st4" d="M82.6,56.1H56.2c-0.7,0-1.3-0.6-1.3-1.3V37c0-0.7,0.6-1.3,1.3-1.3h26.4c0.7,0,1.3,0.6,1.3,1.3v17.8
	C83.9,55.5,83.3,56.1,82.6,56.1z"/>
<path class="st4" d="M19.8,74.2V62.1c0-0.6,0.5-1.1,1.1-1.1h26.8c0.6,0,1.1,0.5,1.1,1.1v12.4"/>
<path class="st4" d="M54.9,75V62.1c0-0.6,0.5-1.1,1.1-1.1h26.8c0.6,0,1.1,0.5,1.1,1.1v12.7"/>
<path class="st5" d="M47.3,28.4l-1.2,3h-0.4l-1.2-2.9v2.9h-0.8v-4.4h1l1.3,3l1.3-3h1v4.4h-0.8v-3H47.3z"/>
<path class="st5" d="M49.4,26.9h2.8v0.8h-1.9v1h1.9v0.8h-1.9v1h1.9v0.8h-2.8V26.9z"/>
<path class="st5" d="M54.1,28.3v3h-0.8v-4.4h1l1.8,3v-3h0.8v4.4H56L54.1,28.3z"/>
<path class="st5" d="M60.9,26.9h0.9v2.6c0,1.3-0.9,1.9-1.9,1.9c-1,0-1.9-0.5-1.9-1.9v-2.6H59v2.6c0,0.7,0.3,1.1,1,1.1
	c0.6,0,1-0.4,1-1.1V26.9z"/>
<path class="st4" d="M20.1,43c2.6-2.4,6.1-4,10-4c8,0,14.5,6.5,14.5,14.5c0,0.8-0.1,1.6-0.2,2.4"/>
<path class="st4" d="M83.8,69.5c-1.4-1.7-3.3-3.1-5.5-4.1c-7.3-3.1-15.8,0.3-19,7.6c-0.2,0.4-0.3,0.8-0.4,1.2"/>
<path class="st4" d="M29,46c-0.3,0-0.4-0.2-0.4-0.4c0.2-1.4,1.5-2.5,3-2.5c1.5,0,2.8,1.1,3,2.5c0.1,0.3-0.1,0.4-0.4,0.4H29z"/>
<path class="st4" d="M19.8,49.1l1.7-3c0.1-0.3,0.5-0.3,0.8-0.2l10.8,6.2c0.3,0.1,0.3,0.5,0.2,0.8l-1.9,3.2"/>
<path class="st4" d="M28.4,55.9L20,51.1"/>
<path class="st4" d="M39.8,52.2c0,0.3-0.2,0.4-0.4,0.4c-1.5-0.1-2.7-1.2-2.9-2.6c-0.2-1.5,0.8-2.8,2.1-3.3c0.3-0.1,0.4,0.1,0.5,0.3
	L39.8,52.2z"/>
<path class="st4" d="M54.8,43.9l4.7-8.1"/>
<path class="st4" d="M71,55.9L55,46.8"/>
<path class="st4" d="M64.4,35.7l15,8.7c0.3,0.1,0.3,0.5,0.2,0.8l-2.2,3.9c-0.1,0.1,0,0.3,0.1,0.4l3.9,2c0.3,0.1,0.4,0.4,0.3,0.7
	l-1,1.9c-0.1,0.3-0.4,0.4-0.7,0.3l-4-2.1c-0.1-0.1-0.3,0-0.4,0.1l-1.9,3.4"/>
<path class="st3" d="M73.1,44.6c1.4,0,2.5-1.1,2.5-2.5c0-1.4-1.1-2.5-2.5-2.5c-1.4,0-2.5,1.1-2.5,2.5C70.6,43.4,71.7,44.6,73.1,44.6
	z"/>
<path class="st2" d="M74.1,74.6C73.4,74,73,73,73,72.1c0-2,1.6-3.7,3.7-3.7s3.7,1.6,3.7,3.7c0,0.9-0.3,1.7-0.9,2.4"/>
<path class="st4" d="M74.1,74.6C73.4,74,73,73,73,72.1c0-2,1.6-3.7,3.7-3.7s3.7,1.6,3.7,3.7c0,0.9-0.3,1.7-0.9,2.4"/>
<path class="st2" d="M62.8,74.6c0-0.1,0-0.2,0-0.3c0-2,1.6-3.7,3.7-3.7s3.7,1.6,3.7,3.7"/>
<path class="st4" d="M62.8,74.6c0-0.1,0-0.2,0-0.3c0-2,1.6-3.7,3.7-3.7s3.7,1.6,3.7,3.7"/>
<path class="st3" d="M68.5,48.5l-6,3.1c-0.6,0.3-1.4,0.1-1.7-0.6l-3.1-6c-0.3-0.6-0.1-1.4,0.6-1.7l6-3.1c0.6-0.3,1.4-0.1,1.7,0.6
	l3.1,6C69.4,47.4,69.1,48.2,68.5,48.5z"/>
<path class="st4" d="M13.1,74.8h79.2"/>
<path class="st3" d="M32.9,69.1c-0.3,0-0.6-0.6-0.6-1.2v-0.8c0-0.7,2.6-2.3,5.8-2.3c3.6,0,6.2,1.7,6.2,2.3v0.8
	c0,0.7-0.3,1.2-0.6,1.2H32.9z"/>
<path class="st4" d="M32.3,74.6v-1.9c0-0.6,0.3-1.1,0.6-1.1h10.7c0.3,0,0.6,0.5,0.6,1.1v1.9c0,0.1,0,0.2,0,0.3"/>
<path class="st4" d="M24,74.5l-0.5-6.2c0-0.1,0.1-0.2,0.2-0.2h5.1c0.1,0,0.2,0.1,0.2,0.2l-0.6,6.3"/>
</svg>
